<?xml version="1.0" encoding="utf-8"?>
<!-- Generator: Adobe Illustrator 19.0.0, SVG Export Plug-In . SVG Version: 6.00 Build 0)  -->
<svg version="1.1" id="layer" xmlns="http://www.w3.org/2000/svg" xmlns:xlink="http://www.w3.org/1999/xlink" x="0px" y="0px"
	 viewBox="-132 224 606 102" style="enable-background:new -132 224 606 102;" xml:space="preserve">
<style type="text/css">
	.st0{fill:#152466;}
</style>
<g>
	<path class="st0" d="M-117.5,248.7c0-14.6-0.3-16.7-8.6-17.7l-2.2-0.3c-0.8-0.6-0.6-3.1,0.3-3.5c3.1,0.1,5.8,0.3,8.4,0.3
		c2.7,0.1,5.3,0.1,8.2,0.1H-85c9,0,17.3,0,19-0.4c0.8,2.4,1.7,12.5,2.2,18.7c-0.6,0.8-2.8,1.1-3.5,0.3c-2.1-6.6-3.4-11.5-10.7-13.4
		c-3-0.7-7.5-0.8-13.6-0.8h-10.1c-4.2,0-4.2,0.3-4.2,5.6v28.1c0,3.9,0.4,3.9,4.6,3.9h8.2c5.9,0,10.3-0.3,11.9-0.8
		c1.7-0.6,2.7-1.4,3.4-4.9l1.1-5.8c0.7-0.8,3.1-0.8,3.7,0.1c0,3.4-0.6,8.9-0.6,14.2c0,5.1,0.6,10.4,0.6,13.5c-0.6,1-2.9,1-3.7,0.1
		l-1.3-5.5c-0.6-2.5-1.5-4.6-4.4-5.3c-2-0.6-5.3-0.7-10.8-0.7h-8.2c-4.2,0-4.6,0.1-4.6,3.8v19.8c0,7.5,0.4,12.2,2.7,14.6
		c1.7,1.7,4.6,3.2,17,3.2c10.8,0,14.9-0.6,18-2.1c2.5-1.4,6.3-6.3,10-13.6c1-0.7,3-0.3,3.5,1c-1,4.9-4.5,15.7-6.3,19.5
		c-6.3-0.1-12.7-0.3-18.8-0.3c-6.3-0.1-12.5-0.1-18.8-0.1h-12.7c-6,0-10.8,0.1-19.1,0.4c-0.8-0.4-1.1-2.7-0.3-3.5l4.6-0.4
		c8-0.7,8.7-2.8,8.7-17.6V248.7z"/>
</g>
<path class="st0" d="M-34.5,274.5c-4.2-9.3-4.8-10-8.2-10.8l-4.6-1.1c-0.8-0.8-1-2.8,0.1-3.5c3.7,0.3,8.3,0.4,12.7,0.4
	c5.1,0,9.1-0.1,13.6-0.4c1.1,0.6,1.3,2.8,0,3.5l-2.9,0.4c-3.7,0.6-3.7,2.4-0.6,9.3l6.9,15.6c3.5,8,5.9,13.2,8,17.9
	c2.8-5.9,5.2-11.8,7.9-17.7c3-6.5,6.9-16.2,8.3-20.2c1-3,0.8-3.9-3.4-4.8l-2.2-0.4c-1.3-0.8-0.8-2.7,0.3-3.5
	c4.1,0.3,7.7,0.4,11.5,0.4c4.5,0,7.7-0.1,10-0.4c1.4,0.6,1.7,2.8,0.7,3.5l-3.9,0.8c-4.2,0.8-5.1,2.1-9.6,11.7L-0.6,298
	c-4.2,9-8.3,19.3-10,23.9c-0.4,0.4-1,0.6-1.7,0.6c-0.6,0-1.1-0.1-1.7-0.6c-1.3-3.7-2.8-8.2-4.6-12.1L-34.5,274.5z"/>
<path class="st0" d="M42.4,274.2c0-9.7-0.6-10.1-5.9-11.2l-2-0.4c-1-0.6-0.8-3,0.3-3.5c2.1,0.1,4.2,0.3,6.3,0.3
	c2.3,0.1,4.5,0.1,6.8,0.1h20c6.2,0,11.8-0.1,13.1-0.4c0.1,1.7,0.8,8.3,1.5,14.3c-0.6,1.1-2.8,1.3-3.7,0.3c-0.8-3.7-1.7-5.5-2.5-6.8
	c-2.2-3.4-8.6-3.4-12-3.4h-6.2c-4.9,0-5.1,0.1-5.1,4.5v15.6c0,2.5,0,2.8,2.7,2.8h6.6c7.4,0,8.2-1.1,9.3-5.3l0.7-2.7
	c0.7-1,2.8-0.8,3.5,0.3c-0.3,4.1-0.3,6.6-0.3,9.8c0,3.5,0,6.1,0.3,10.1c-0.7,1.1-2.8,1.3-3.5,0.3l-0.7-2.7c-1.1-4.2-1.8-5.3-9.3-5.3
	h-6.6c-2.7,0-2.7,0.4-2.7,3.2v10.1c0,4.2,0.3,8.6,1.5,10.1c1.3,1.4,3.8,2,11.8,2c9,0,14.2-0.4,18.3-11.7c1-1,3.2-0.7,3.7,0.6
	c-0.7,5.9-2.7,12.9-4.2,15.6c-4.4-0.1-8.4-0.3-12.4-0.3c-3.9-0.1-7.7-0.1-11.5-0.1H47.9c-4.5,0-8.9,0.1-15.6,0.4
	c-1.1-0.4-1.3-2.8-0.3-3.5l3.8-0.4c6-0.7,6.6-1.5,6.6-11.2V274.2z"/>
<path class="st0" d="M112.3,275.9c0-9.1-0.1-11.5-3.4-11.9l-3.9-0.6c-1.1-0.1-1.4-3.1,0-3.5c7.7-0.6,15.6-0.8,23.3-0.8
	c13.1,0,27.3,2.1,27.3,16.9c0,9-7,13.1-12.5,15c-0.6,0.6-0.4,1.4,0,2.1c7,11.8,13.2,18.7,17.9,22.5c2.5,2.1,5.2,2.8,7.5,3
	c0.6,0.6,0.6,1.8,0,2.2c-1.3,0.4-3.2,0.7-5.9,0.7c-8.4,0-13.5-2.7-19.7-10.5c-3.5-4.5-7.3-10.7-10.3-15.2c-1.1-1.7-3.4-2.3-5.6-2.3
	c-3.7,0-3.9,0.3-3.9,2.3v10c0,9.7,0.6,10.4,6.6,11.2l3.2,0.4c1,0.7,0.8,3.1-0.3,3.5c-5.9-0.3-10.5-0.4-14.9-0.4
	c-4.5,0-8.9,0.1-13.8,0.4c-1.4-0.4-1.5-3-0.3-3.5l2.1-0.4c6-1.3,6.6-1.5,6.6-11.2V275.9z M123,286.2c0,3.5,0.1,3.5,7,3.5
	c9.1,0,13.9-3.7,13.9-13.4c0-7-4.9-13.2-14.8-13.2c-5.2,0-6.2,0.3-6.2,3.9V286.2z"/>
<path class="st0" d="M234.9,260.1c0,3,0.4,9.8,1.3,15.5c-0.6,1.1-2.7,1.4-3.7,0.3c-2.1-7.7-6.9-14.3-19.5-14.3
	c-12.1,0-24,8.2-24,27.3c0,18.8,12.1,29.5,25.3,29.5c13.2,0,18.7-10.5,20.3-14.2c0.7-1.3,2.9-1.3,3.7,0.1c-0.7,6.2-3,12.7-4.6,15.2
	c-4.1,0.7-9.3,3-19,3c-8.9,0-17.6-1.5-24.7-6.5c-7.6-5.2-13.4-13.8-13.4-25c0-11.4,4.8-19.8,11.8-25.3c6.9-5.3,16.6-8.2,27.4-8.2
	C224.8,257.5,233.8,260.1,234.9,260.1"/>
<path class="st0" d="M321.8,289.7c0,19-14.3,32.8-34.2,32.8c-21.8,0-34.7-14.2-34.7-31.9c0-18.7,14.3-33,34.7-33
	C310.3,257.5,321.8,272.5,321.8,289.7 M265.5,288.3c0,14.5,6.6,30.1,22.9,30.1c10.7,0,21-7.3,21-26.6c0-15-7.2-30.2-22.6-30.2
	C276.6,261.5,265.5,268.4,265.5,288.3"/>
<path class="st0" d="M348.8,275.9c0-9.1-0.1-11.5-3.4-11.9l-3.9-0.6c-1.1-0.1-1.4-3.1,0-3.5c7.7-0.6,15.6-0.8,23.3-0.8
	c13.1,0,27.3,2.1,27.3,16.9c0,9-7,13.1-12.5,15c-0.6,0.6-0.4,1.4,0,2.1c7,11.8,13.2,18.7,17.9,22.5c2.5,2.1,5.2,2.8,7.5,3
	c0.6,0.6,0.6,1.8,0,2.2c-1.3,0.4-3.2,0.7-5.9,0.7c-8.4,0-13.5-2.7-19.7-10.5c-3.5-4.5-7.3-10.7-10.3-15.2c-1.1-1.7-3.4-2.3-5.6-2.3
	c-3.7,0-3.9,0.3-3.9,2.3v10c0,9.7,0.6,10.4,6.6,11.2l3.2,0.4c1,0.7,0.8,3.1-0.3,3.5c-5.9-0.3-10.5-0.4-14.9-0.4
	c-4.5,0-8.9,0.1-13.8,0.4c-1.4-0.4-1.5-3-0.3-3.5l2.1-0.4c6-1.3,6.6-1.5,6.6-11.2V275.9z M359.5,286.2c0,3.5,0.1,3.5,7,3.5
	c9.1,0,13.9-3.7,13.9-13.4c0-7-4.9-13.2-14.8-13.2c-5.2,0-6.2,0.3-6.2,3.9V286.2z"/>
<path class="st0" d="M422.7,274.2c0-9.7-0.6-10.1-5.9-11.2l-2-0.4c-1-0.6-0.8-3,0.3-3.5c2.1,0.1,4.2,0.3,6.3,0.3
	c2.2,0.1,4.5,0.1,6.7,0.1h20c6.2,0,11.8-0.1,13.1-0.4c0.1,1.7,0.8,8.3,1.5,14.3c-0.6,1.1-2.8,1.3-3.7,0.3c-0.8-3.7-1.7-5.5-2.5-6.8
	c-2.3-3.4-8.6-3.4-12-3.4h-6.2c-4.9,0-5.1,0.1-5.1,4.5v15.6c0,2.5,0,2.8,2.7,2.8h6.6c7.5,0,8.2-1.1,9.3-5.3l0.7-2.7
	c0.7-1,2.8-0.8,3.5,0.3c-0.3,4.1-0.3,6.6-0.3,9.8c0,3.5,0,6.1,0.3,10.1c-0.7,1.1-2.8,1.3-3.5,0.3l-0.7-2.7c-1.1-4.2-1.8-5.3-9.3-5.3
	H436c-2.7,0-2.7,0.4-2.7,3.2v10.1c0,4.2,0.3,8.6,1.5,10.1c1.3,1.4,3.8,2,11.8,2c9,0,14.2-0.4,18.3-11.7c1-1,3.2-0.7,3.6,0.6
	c-0.7,5.9-2.7,12.9-4.2,15.6c-4.4-0.1-8.4-0.3-12.4-0.3c-3.9-0.1-7.7-0.1-11.5-0.1h-12.4c-4.5,0-8.9,0.1-15.6,0.4
	c-1.1-0.4-1.3-2.8-0.3-3.5l3.8-0.4c6-0.7,6.6-1.5,6.6-11.2V274.2z"/>
</svg>
